<svg xmlns="http://www.w3.org/2000/svg" width="84" height="100" viewBox="0 0 84 100" fill="none">
  <ellipse cx="42" cy="94" rx="28" ry="6" fill="#F0D78C" fill-opacity="0.55"/>
  <ellipse cx="42" cy="92" rx="18" ry="4" fill="#D4AF37" fill-opacity="0.45"/>
  <path d="M42 10 L60 26 V64 H24 V26 Z" fill="url(#wall)" stroke="#F0D78C" stroke-width="1.8"/>
  <path d="M42 5 L66 28 H18 Z" fill="url(#roof)" stroke="#E7C075" stroke-width="1.2"/>
  <rect x="35" y="42" width="14" height="22" rx="1" fill="#1A1030" stroke="#F0D78C" stroke-width="1"/>
  <path d="M38 42 V34 H46 V42" stroke="#F0D78C" stroke-width="1" fill="none"/>
  <circle cx="42" cy="20" r="6.5" fill="#7B4CB8" stroke="#FFF6DC" stroke-width="1.6"/>
  <path d="M42 13.5 V26.5 M36 20 H48" stroke="#FFF6DC" stroke-width="1.6" stroke-linecap="round"/>
  <rect x="27" y="32" width="6" height="7" rx="0.5" fill="#FFF6DC" fill-opacity="0.95"/>
  <rect x="51" y="32" width="6" height="7" rx="0.5" fill="#FFF6DC" fill-opacity="0.75"/>
  <rect x="27" y="54" width="6" height="7" rx="0.5" fill="#FFF6DC" fill-opacity="0.75"/>
  <rect x="51" y="54" width="6" height="7" rx="0.5" fill="#FFF6DC" fill-opacity="0.95"/>
  <circle cx="42" cy="2" r="7" fill="#D4AF37" stroke="#FFF6DC" stroke-width="1.2"/>
  <path d="M42 0 V4 M39.5 2 H44.5" stroke="#5D3291" stroke-width="1.2" stroke-linecap="round"/>
  <defs>
    <linearGradient id="wall" x1="24" y1="26" x2="60" y2="64" gradientUnits="userSpaceOnUse">
      <stop stop-color="#A98CD1"/>
      <stop offset="1" stop-color="#6A4AB5"/>
    </linearGradient>
    <linearGradient id="roof" x1="42" y1="5" x2="42" y2="28" gradientUnits="userSpaceOnUse">
      <stop stop-color="#5A3D92"/>
      <stop offset="1" stop-color="#3A2560"/>
    </linearGradient>
  </defs>
</svg>
